<?xml version="1.0" encoding="utf-8"?>
<svg version="1.1" xmlns:xlink="http://www.w3.org/1999/xlink" width="50px" height="42px" xmlns="http://www.w3.org/2000/svg">
  <g transform="matrix(1 0 0 1 -1269 -1270 )">
    <path d="M 16.573660714285715 7.7018469656992075  C 16.629464285714285 7.757255936675464  16.657366071428573 7.803430079155667  17 7.8403693931398415  L 17 40.3377308707124  C 16.657366071428573 40.79947229551452  16.54110863095238 41.1919525065963  16.30859375 41.51517150395779  C 16.07607886904762 41.83839050131926  15.736607142857142 42  15.290178571428573 42  C 14.973958333333334 42  14.667038690476192 41.92612137203166  14.369419642857142 41.77836411609499  L 1.3950892857142858 35.32321899736148  C 1.0044642857142858 35.138522427440634  0.6742931547619049 34.82915567282322  0.4045758928571429 34.395118733509236  C 0.134858630952381 33.96108179419525  0 33.531662269129285  0 33.10686015831135  L 0 1.523746701846965  C 0 1.1543535620052712  0.09300595238095243 0.8403693931398384  0.2790178571428572 0.5817941952506573  C 0.4650297619047621 0.32321899736147164  0.7347470238095238 0.19393139841688578  1.0881696428571428 0.19393139841688578  C 1.3485863095238095 0.19393139841688578  1.7578125 0.3324538258575198  2.3158482142857144 0.6094986807387879  L 16.573660714285715 7.7018469656992075  Z M 19 27.261213720316626  L 19 10.638522427440634  L 33.34263392857143 34.63060686015831  L 19 27.261213720316626  Z M 34.933035714285715 35.434036939313984  L 50 11.137203166226914  L 50 40.3377308707124  C 50 40.79947229551452  49.86979166666667 41.17348284960422  49.609375 41.45976253298153  C 49.34895833333334 41.74604221635884  48.99553571428572 41.88918205804749  48.549107142857146 41.88918205804749  C 48.10267857142858 41.88918205804749  47.6655505952381 41.76912928759894  47.237723214285715 41.529023746701846  L 34.933035714285715 35.434036939313984  Z M 49.8046875 7.646437994722955  C 49.87909226190476 7.68337730870712  49.916294642857146 7.738786279683377  49.916294642857146 7.812664907651715  C 49.916294642857146 7.868073878627968  47.530691964285715 11.742084432717675  42.759486607142854 19.434696569920845  C 37.98828125 27.127308707124  35.19345238095239 31.629287598944586  34.375 32.940633245382585  L 23.493303571428573 15.375989445910289  L 32.533482142857146 0.7757255936675478  C 32.84970238095239 0.25857519788918104  33.333333333333336 0  33.984375 0  C 34.24479166666667 0  34.486607142857146 0.05540897097625175  34.70982142857143 0.1662269129287599  L 49.8046875 7.646437994722955  Z " fill-rule="nonzero" fill="#000000" stroke="none" transform="matrix(1 0 0 1 1269 1270 )" />
  </g>
</svg>